<mxfile host="app.diagrams.net" modified="2021-08-28T04:37:27.452Z" agent="5.0 (Windows NT 10.0; Win64; x64) AppleWebKit/537.36 (KHTML, like Gecko) Chrome/92.0.4515.159 Safari/537.36" etag="8zkWl8-Q52N2WF8rFySj" version="15.0.3" type="github">
  <diagram id="AOskYVD_T6Vx6nB35h6X" name="Page-1">
    <mxGraphModel dx="1410" dy="777" grid="1" gridSize="10" guides="1" tooltips="1" connect="1" arrows="1" fold="1" page="1" pageScale="1" pageWidth="850" pageHeight="1100" math="0" shadow="0">
      <root>
        <mxCell id="0" />
        <mxCell id="1" parent="0" />
        <mxCell id="Tc1mEy770o2BSBTzKzoE-2" value="&lt;font&gt;&lt;span style=&quot;font-size: 36px&quot;&gt;G&lt;/span&gt;&lt;sub&gt;&lt;font style=&quot;font-size: 18px&quot;&gt;N&lt;/font&gt;&lt;/sub&gt;&lt;/font&gt;" style="rounded=0;whiteSpace=wrap;html=1;fillColor=none;" parent="1" vertex="1">
          <mxGeometry x="200" y="40" width="160" height="320" as="geometry" />
        </mxCell>
        <mxCell id="Tc1mEy770o2BSBTzKzoE-3" value="" style="endArrow=none;html=1;" parent="1" edge="1">
          <mxGeometry width="50" height="50" relative="1" as="geometry">
            <mxPoint x="80" y="60" as="sourcePoint" />
            <mxPoint x="200" y="60" as="targetPoint" />
          </mxGeometry>
        </mxCell>
        <mxCell id="Tc1mEy770o2BSBTzKzoE-4" value="" style="endArrow=none;html=1;" parent="1" edge="1">
          <mxGeometry width="50" height="50" relative="1" as="geometry">
            <mxPoint x="80" y="100" as="sourcePoint" />
            <mxPoint x="200" y="100" as="targetPoint" />
          </mxGeometry>
        </mxCell>
        <mxCell id="Tc1mEy770o2BSBTzKzoE-9" value="" style="endArrow=none;html=1;" parent="1" edge="1">
          <mxGeometry width="50" height="50" relative="1" as="geometry">
            <mxPoint x="80" y="140" as="sourcePoint" />
            <mxPoint x="200" y="140" as="targetPoint" />
          </mxGeometry>
        </mxCell>
        <mxCell id="Tc1mEy770o2BSBTzKzoE-10" value="" style="endArrow=none;html=1;" parent="1" edge="1">
          <mxGeometry width="50" height="50" relative="1" as="geometry">
            <mxPoint x="80" y="180" as="sourcePoint" />
            <mxPoint x="200" y="180" as="targetPoint" />
          </mxGeometry>
        </mxCell>
        <mxCell id="Tc1mEy770o2BSBTzKzoE-11" value="" style="endArrow=none;html=1;" parent="1" edge="1">
          <mxGeometry width="50" height="50" relative="1" as="geometry">
            <mxPoint x="80" y="220" as="sourcePoint" />
            <mxPoint x="200" y="220" as="targetPoint" />
          </mxGeometry>
        </mxCell>
        <mxCell id="Tc1mEy770o2BSBTzKzoE-12" value="" style="endArrow=none;html=1;" parent="1" edge="1">
          <mxGeometry width="50" height="50" relative="1" as="geometry">
            <mxPoint x="80" y="260" as="sourcePoint" />
            <mxPoint x="200" y="260" as="targetPoint" />
          </mxGeometry>
        </mxCell>
        <mxCell id="Tc1mEy770o2BSBTzKzoE-13" value="" style="endArrow=none;html=1;" parent="1" edge="1">
          <mxGeometry width="50" height="50" relative="1" as="geometry">
            <mxPoint x="80" y="300" as="sourcePoint" />
            <mxPoint x="200" y="300" as="targetPoint" />
          </mxGeometry>
        </mxCell>
        <mxCell id="Tc1mEy770o2BSBTzKzoE-14" value="" style="endArrow=none;html=1;" parent="1" edge="1">
          <mxGeometry width="50" height="50" relative="1" as="geometry">
            <mxPoint x="80" y="340" as="sourcePoint" />
            <mxPoint x="200" y="340" as="targetPoint" />
          </mxGeometry>
        </mxCell>
        <mxCell id="Tc1mEy770o2BSBTzKzoE-15" value="" style="endArrow=none;html=1;" parent="1" edge="1">
          <mxGeometry width="50" height="50" relative="1" as="geometry">
            <mxPoint x="360" y="59.5" as="sourcePoint" />
            <mxPoint x="480" y="59.5" as="targetPoint" />
          </mxGeometry>
        </mxCell>
        <mxCell id="Tc1mEy770o2BSBTzKzoE-16" value="" style="endArrow=none;html=1;" parent="1" edge="1">
          <mxGeometry width="50" height="50" relative="1" as="geometry">
            <mxPoint x="360" y="99.5" as="sourcePoint" />
            <mxPoint x="480" y="99.5" as="targetPoint" />
          </mxGeometry>
        </mxCell>
        <mxCell id="Tc1mEy770o2BSBTzKzoE-17" value="" style="endArrow=none;html=1;" parent="1" edge="1">
          <mxGeometry width="50" height="50" relative="1" as="geometry">
            <mxPoint x="360" y="139.5" as="sourcePoint" />
            <mxPoint x="480" y="139.5" as="targetPoint" />
          </mxGeometry>
        </mxCell>
        <mxCell id="Tc1mEy770o2BSBTzKzoE-18" value="" style="endArrow=none;html=1;" parent="1" edge="1">
          <mxGeometry width="50" height="50" relative="1" as="geometry">
            <mxPoint x="360" y="179.5" as="sourcePoint" />
            <mxPoint x="480" y="179.5" as="targetPoint" />
          </mxGeometry>
        </mxCell>
        <mxCell id="Tc1mEy770o2BSBTzKzoE-19" value="" style="endArrow=none;html=1;" parent="1" edge="1">
          <mxGeometry width="50" height="50" relative="1" as="geometry">
            <mxPoint x="360" y="219.5" as="sourcePoint" />
            <mxPoint x="480" y="219.5" as="targetPoint" />
          </mxGeometry>
        </mxCell>
        <mxCell id="Tc1mEy770o2BSBTzKzoE-20" value="" style="endArrow=none;html=1;" parent="1" edge="1">
          <mxGeometry width="50" height="50" relative="1" as="geometry">
            <mxPoint x="360" y="259.5" as="sourcePoint" />
            <mxPoint x="480" y="259.5" as="targetPoint" />
          </mxGeometry>
        </mxCell>
        <mxCell id="Tc1mEy770o2BSBTzKzoE-21" value="" style="endArrow=none;html=1;" parent="1" edge="1">
          <mxGeometry width="50" height="50" relative="1" as="geometry">
            <mxPoint x="360" y="299.5" as="sourcePoint" />
            <mxPoint x="480" y="299.5" as="targetPoint" />
          </mxGeometry>
        </mxCell>
        <mxCell id="Tc1mEy770o2BSBTzKzoE-22" value="" style="endArrow=none;html=1;" parent="1" edge="1">
          <mxGeometry width="50" height="50" relative="1" as="geometry">
            <mxPoint x="360" y="339.5" as="sourcePoint" />
            <mxPoint x="480" y="339.5" as="targetPoint" />
          </mxGeometry>
        </mxCell>
        <mxCell id="Tc1mEy770o2BSBTzKzoE-23" value="&lt;font style=&quot;font-size: 36px&quot;&gt;BPSK&lt;br&gt;+&lt;br&gt;AWGN&lt;/font&gt;" style="rounded=0;whiteSpace=wrap;html=1;fillColor=none;" parent="1" vertex="1">
          <mxGeometry x="480" y="40" width="160" height="320" as="geometry" />
        </mxCell>
        <mxCell id="Tc1mEy770o2BSBTzKzoE-24" value="" style="endArrow=none;html=1;" parent="1" edge="1">
          <mxGeometry width="50" height="50" relative="1" as="geometry">
            <mxPoint x="640" y="59.5" as="sourcePoint" />
            <mxPoint x="760" y="59.5" as="targetPoint" />
          </mxGeometry>
        </mxCell>
        <mxCell id="Tc1mEy770o2BSBTzKzoE-25" value="" style="endArrow=none;html=1;" parent="1" edge="1">
          <mxGeometry width="50" height="50" relative="1" as="geometry">
            <mxPoint x="640" y="99.5" as="sourcePoint" />
            <mxPoint x="760" y="99.5" as="targetPoint" />
          </mxGeometry>
        </mxCell>
        <mxCell id="Tc1mEy770o2BSBTzKzoE-26" value="" style="endArrow=none;html=1;" parent="1" edge="1">
          <mxGeometry width="50" height="50" relative="1" as="geometry">
            <mxPoint x="640" y="139.5" as="sourcePoint" />
            <mxPoint x="760" y="139.5" as="targetPoint" />
          </mxGeometry>
        </mxCell>
        <mxCell id="Tc1mEy770o2BSBTzKzoE-27" value="" style="endArrow=none;html=1;" parent="1" edge="1">
          <mxGeometry width="50" height="50" relative="1" as="geometry">
            <mxPoint x="640" y="179.5" as="sourcePoint" />
            <mxPoint x="760" y="179.5" as="targetPoint" />
          </mxGeometry>
        </mxCell>
        <mxCell id="Tc1mEy770o2BSBTzKzoE-28" value="" style="endArrow=none;html=1;" parent="1" edge="1">
          <mxGeometry width="50" height="50" relative="1" as="geometry">
            <mxPoint x="640" y="219.5" as="sourcePoint" />
            <mxPoint x="760" y="219.5" as="targetPoint" />
          </mxGeometry>
        </mxCell>
        <mxCell id="Tc1mEy770o2BSBTzKzoE-29" value="" style="endArrow=none;html=1;" parent="1" edge="1">
          <mxGeometry width="50" height="50" relative="1" as="geometry">
            <mxPoint x="640" y="259.5" as="sourcePoint" />
            <mxPoint x="760" y="259.5" as="targetPoint" />
          </mxGeometry>
        </mxCell>
        <mxCell id="Tc1mEy770o2BSBTzKzoE-30" value="" style="endArrow=none;html=1;" parent="1" edge="1">
          <mxGeometry width="50" height="50" relative="1" as="geometry">
            <mxPoint x="640" y="299.5" as="sourcePoint" />
            <mxPoint x="760" y="299.5" as="targetPoint" />
          </mxGeometry>
        </mxCell>
        <mxCell id="Tc1mEy770o2BSBTzKzoE-31" value="" style="endArrow=none;html=1;" parent="1" edge="1">
          <mxGeometry width="50" height="50" relative="1" as="geometry">
            <mxPoint x="640" y="339.5" as="sourcePoint" />
            <mxPoint x="760" y="339.5" as="targetPoint" />
          </mxGeometry>
        </mxCell>
        <mxCell id="Tc1mEy770o2BSBTzKzoE-32" value="&lt;font style=&quot;font-size: 18px&quot;&gt;u&lt;sub&gt;1&lt;/sub&gt;&lt;/font&gt;" style="text;html=1;strokeColor=none;fillColor=none;align=center;verticalAlign=middle;whiteSpace=wrap;rounded=0;" parent="1" vertex="1">
          <mxGeometry x="46" y="53" width="40" height="20" as="geometry" />
        </mxCell>
        <mxCell id="Tc1mEy770o2BSBTzKzoE-33" value="&lt;font style=&quot;font-size: 18px&quot;&gt;u&lt;sub&gt;2&lt;/sub&gt;&lt;/font&gt;" style="text;html=1;strokeColor=none;fillColor=none;align=center;verticalAlign=middle;whiteSpace=wrap;rounded=0;" parent="1" vertex="1">
          <mxGeometry x="46" y="90" width="40" height="20" as="geometry" />
        </mxCell>
        <mxCell id="Tc1mEy770o2BSBTzKzoE-34" value="&lt;font style=&quot;font-size: 18px&quot;&gt;u&lt;sub&gt;3&lt;/sub&gt;&lt;/font&gt;" style="text;html=1;strokeColor=none;fillColor=none;align=center;verticalAlign=middle;whiteSpace=wrap;rounded=0;" parent="1" vertex="1">
          <mxGeometry x="46" y="130" width="40" height="20" as="geometry" />
        </mxCell>
        <mxCell id="Tc1mEy770o2BSBTzKzoE-35" value="&lt;font style=&quot;font-size: 18px&quot;&gt;u&lt;sub&gt;4&lt;/sub&gt;&lt;/font&gt;" style="text;html=1;strokeColor=none;fillColor=none;align=center;verticalAlign=middle;whiteSpace=wrap;rounded=0;" parent="1" vertex="1">
          <mxGeometry x="46" y="167" width="40" height="20" as="geometry" />
        </mxCell>
        <mxCell id="Tc1mEy770o2BSBTzKzoE-36" value="&lt;font style=&quot;font-size: 18px&quot;&gt;u&lt;sub&gt;5&lt;/sub&gt;&lt;/font&gt;" style="text;html=1;strokeColor=none;fillColor=none;align=center;verticalAlign=middle;whiteSpace=wrap;rounded=0;" parent="1" vertex="1">
          <mxGeometry x="46" y="210" width="40" height="20" as="geometry" />
        </mxCell>
        <mxCell id="Tc1mEy770o2BSBTzKzoE-37" value="&lt;font style=&quot;font-size: 18px&quot;&gt;u&lt;sub&gt;6&lt;br&gt;&lt;/sub&gt;&lt;/font&gt;" style="text;html=1;strokeColor=none;fillColor=none;align=center;verticalAlign=middle;whiteSpace=wrap;rounded=0;" parent="1" vertex="1">
          <mxGeometry x="46" y="247" width="40" height="20" as="geometry" />
        </mxCell>
        <mxCell id="Tc1mEy770o2BSBTzKzoE-38" value="&lt;font style=&quot;font-size: 18px&quot;&gt;u&lt;sub&gt;7&lt;/sub&gt;&lt;/font&gt;" style="text;html=1;strokeColor=none;fillColor=none;align=center;verticalAlign=middle;whiteSpace=wrap;rounded=0;" parent="1" vertex="1">
          <mxGeometry x="46" y="287" width="40" height="20" as="geometry" />
        </mxCell>
        <mxCell id="Tc1mEy770o2BSBTzKzoE-39" value="&lt;font style=&quot;font-size: 18px&quot;&gt;u&lt;sub&gt;8&lt;/sub&gt;&lt;/font&gt;" style="text;html=1;strokeColor=none;fillColor=none;align=center;verticalAlign=middle;whiteSpace=wrap;rounded=0;" parent="1" vertex="1">
          <mxGeometry x="46" y="324" width="40" height="20" as="geometry" />
        </mxCell>
        <mxCell id="Tc1mEy770o2BSBTzKzoE-40" value="&lt;font style=&quot;font-size: 18px&quot;&gt;r&lt;sub&gt;1&lt;/sub&gt;&lt;/font&gt;" style="text;html=1;strokeColor=none;fillColor=none;align=center;verticalAlign=middle;whiteSpace=wrap;rounded=0;" parent="1" vertex="1">
          <mxGeometry x="755" y="53" width="40" height="20" as="geometry" />
        </mxCell>
        <mxCell id="Tc1mEy770o2BSBTzKzoE-41" value="&lt;font style=&quot;font-size: 18px&quot;&gt;r&lt;sub&gt;2&lt;/sub&gt;&lt;/font&gt;" style="text;html=1;strokeColor=none;fillColor=none;align=center;verticalAlign=middle;whiteSpace=wrap;rounded=0;" parent="1" vertex="1">
          <mxGeometry x="755" y="90" width="40" height="20" as="geometry" />
        </mxCell>
        <mxCell id="Tc1mEy770o2BSBTzKzoE-42" value="&lt;font style=&quot;font-size: 18px&quot;&gt;r&lt;sub&gt;3&lt;/sub&gt;&lt;/font&gt;" style="text;html=1;strokeColor=none;fillColor=none;align=center;verticalAlign=middle;whiteSpace=wrap;rounded=0;" parent="1" vertex="1">
          <mxGeometry x="755" y="130" width="40" height="20" as="geometry" />
        </mxCell>
        <mxCell id="Tc1mEy770o2BSBTzKzoE-43" value="&lt;font style=&quot;font-size: 18px&quot;&gt;r&lt;sub&gt;4&lt;/sub&gt;&lt;/font&gt;" style="text;html=1;strokeColor=none;fillColor=none;align=center;verticalAlign=middle;whiteSpace=wrap;rounded=0;" parent="1" vertex="1">
          <mxGeometry x="755" y="167" width="40" height="20" as="geometry" />
        </mxCell>
        <mxCell id="Tc1mEy770o2BSBTzKzoE-44" value="&lt;font style=&quot;font-size: 18px&quot;&gt;r&lt;sub&gt;5&lt;/sub&gt;&lt;/font&gt;" style="text;html=1;strokeColor=none;fillColor=none;align=center;verticalAlign=middle;whiteSpace=wrap;rounded=0;" parent="1" vertex="1">
          <mxGeometry x="755" y="210" width="40" height="20" as="geometry" />
        </mxCell>
        <mxCell id="Tc1mEy770o2BSBTzKzoE-45" value="&lt;font style=&quot;font-size: 18px&quot;&gt;r&lt;sub&gt;6&lt;br&gt;&lt;/sub&gt;&lt;/font&gt;" style="text;html=1;strokeColor=none;fillColor=none;align=center;verticalAlign=middle;whiteSpace=wrap;rounded=0;" parent="1" vertex="1">
          <mxGeometry x="755" y="247" width="40" height="20" as="geometry" />
        </mxCell>
        <mxCell id="Tc1mEy770o2BSBTzKzoE-46" value="&lt;font style=&quot;font-size: 18px&quot;&gt;r&lt;sub&gt;7&lt;/sub&gt;&lt;/font&gt;" style="text;html=1;strokeColor=none;fillColor=none;align=center;verticalAlign=middle;whiteSpace=wrap;rounded=0;" parent="1" vertex="1">
          <mxGeometry x="755" y="287" width="40" height="20" as="geometry" />
        </mxCell>
        <mxCell id="Tc1mEy770o2BSBTzKzoE-47" value="&lt;font style=&quot;font-size: 18px&quot;&gt;r&lt;sub&gt;8&lt;/sub&gt;&lt;/font&gt;" style="text;html=1;strokeColor=none;fillColor=none;align=center;verticalAlign=middle;whiteSpace=wrap;rounded=0;" parent="1" vertex="1">
          <mxGeometry x="755" y="324" width="40" height="20" as="geometry" />
        </mxCell>
        <mxCell id="Fft4RuXF4kXxr0UAbme2-1" value="&lt;font style=&quot;font-size: 18px&quot;&gt;Bit channel 1&lt;/font&gt;" style="rounded=0;whiteSpace=wrap;html=1;" vertex="1" parent="1">
          <mxGeometry x="200" y="440" width="120" height="40" as="geometry" />
        </mxCell>
        <mxCell id="Fft4RuXF4kXxr0UAbme2-2" value="&lt;font style=&quot;font-size: 18px&quot;&gt;Bit channel 2&lt;/font&gt;" style="rounded=0;whiteSpace=wrap;html=1;" vertex="1" parent="1">
          <mxGeometry x="200" y="490" width="120" height="40" as="geometry" />
        </mxCell>
        <mxCell id="Fft4RuXF4kXxr0UAbme2-3" value="&lt;font style=&quot;font-size: 18px&quot;&gt;Bit channel 3&lt;/font&gt;" style="rounded=0;whiteSpace=wrap;html=1;" vertex="1" parent="1">
          <mxGeometry x="200" y="540" width="120" height="40" as="geometry" />
        </mxCell>
        <mxCell id="Fft4RuXF4kXxr0UAbme2-4" value="&lt;font style=&quot;font-size: 18px&quot;&gt;Bit channel i&lt;/font&gt;" style="rounded=0;whiteSpace=wrap;html=1;" vertex="1" parent="1">
          <mxGeometry x="200" y="620" width="120" height="40" as="geometry" />
        </mxCell>
        <mxCell id="Fft4RuXF4kXxr0UAbme2-5" value="" style="endArrow=none;dashed=1;html=1;" edge="1" parent="1">
          <mxGeometry width="50" height="50" relative="1" as="geometry">
            <mxPoint x="260" y="610" as="sourcePoint" />
            <mxPoint x="260" y="590" as="targetPoint" />
          </mxGeometry>
        </mxCell>
        <mxCell id="Fft4RuXF4kXxr0UAbme2-7" value="&lt;font style=&quot;font-size: 18px&quot;&gt;Bit channel N&lt;/font&gt;" style="rounded=0;whiteSpace=wrap;html=1;" vertex="1" parent="1">
          <mxGeometry x="200" y="700" width="120" height="40" as="geometry" />
        </mxCell>
        <mxCell id="Fft4RuXF4kXxr0UAbme2-8" value="" style="endArrow=none;dashed=1;html=1;" edge="1" parent="1">
          <mxGeometry width="50" height="50" relative="1" as="geometry">
            <mxPoint x="260" y="690" as="sourcePoint" />
            <mxPoint x="260" y="670" as="targetPoint" />
          </mxGeometry>
        </mxCell>
        <mxCell id="Fft4RuXF4kXxr0UAbme2-9" value="" style="endArrow=none;html=1;" edge="1" parent="1">
          <mxGeometry width="50" height="50" relative="1" as="geometry">
            <mxPoint x="80" y="457" as="sourcePoint" />
            <mxPoint x="200" y="457" as="targetPoint" />
          </mxGeometry>
        </mxCell>
        <mxCell id="Fft4RuXF4kXxr0UAbme2-10" value="" style="endArrow=none;html=1;" edge="1" parent="1">
          <mxGeometry width="50" height="50" relative="1" as="geometry">
            <mxPoint x="80" y="510" as="sourcePoint" />
            <mxPoint x="200" y="510" as="targetPoint" />
          </mxGeometry>
        </mxCell>
        <mxCell id="Fft4RuXF4kXxr0UAbme2-11" value="" style="endArrow=none;html=1;" edge="1" parent="1">
          <mxGeometry width="50" height="50" relative="1" as="geometry">
            <mxPoint x="80" y="560" as="sourcePoint" />
            <mxPoint x="200" y="560" as="targetPoint" />
          </mxGeometry>
        </mxCell>
        <mxCell id="Fft4RuXF4kXxr0UAbme2-12" value="" style="endArrow=none;html=1;" edge="1" parent="1">
          <mxGeometry width="50" height="50" relative="1" as="geometry">
            <mxPoint x="80" y="641" as="sourcePoint" />
            <mxPoint x="200" y="641" as="targetPoint" />
          </mxGeometry>
        </mxCell>
        <mxCell id="Fft4RuXF4kXxr0UAbme2-13" value="" style="endArrow=none;html=1;" edge="1" parent="1">
          <mxGeometry width="50" height="50" relative="1" as="geometry">
            <mxPoint x="80" y="720" as="sourcePoint" />
            <mxPoint x="200" y="720" as="targetPoint" />
          </mxGeometry>
        </mxCell>
        <mxCell id="Fft4RuXF4kXxr0UAbme2-14" value="&lt;font style=&quot;font-size: 18px&quot;&gt;u&lt;sub&gt;1&lt;/sub&gt;&lt;/font&gt;" style="text;html=1;strokeColor=none;fillColor=none;align=center;verticalAlign=middle;whiteSpace=wrap;rounded=0;" vertex="1" parent="1">
          <mxGeometry x="46" y="450" width="40" height="20" as="geometry" />
        </mxCell>
        <mxCell id="Fft4RuXF4kXxr0UAbme2-15" value="&lt;font style=&quot;font-size: 18px&quot;&gt;u&lt;sub&gt;2&lt;/sub&gt;&lt;/font&gt;" style="text;html=1;strokeColor=none;fillColor=none;align=center;verticalAlign=middle;whiteSpace=wrap;rounded=0;" vertex="1" parent="1">
          <mxGeometry x="46" y="500" width="40" height="20" as="geometry" />
        </mxCell>
        <mxCell id="Fft4RuXF4kXxr0UAbme2-16" value="&lt;font style=&quot;font-size: 18px&quot;&gt;u&lt;sub&gt;3&lt;/sub&gt;&lt;/font&gt;" style="text;html=1;strokeColor=none;fillColor=none;align=center;verticalAlign=middle;whiteSpace=wrap;rounded=0;" vertex="1" parent="1">
          <mxGeometry x="46" y="550" width="40" height="20" as="geometry" />
        </mxCell>
        <mxCell id="Fft4RuXF4kXxr0UAbme2-17" value="&lt;font&gt;&lt;span style=&quot;font-size: 18px&quot;&gt;u&lt;/span&gt;&lt;sub&gt;&lt;font style=&quot;font-size: 13px&quot;&gt;i&lt;/font&gt;&lt;/sub&gt;&lt;/font&gt;" style="text;html=1;strokeColor=none;fillColor=none;align=center;verticalAlign=middle;whiteSpace=wrap;rounded=0;" vertex="1" parent="1">
          <mxGeometry x="46" y="628" width="40" height="20" as="geometry" />
        </mxCell>
        <mxCell id="Fft4RuXF4kXxr0UAbme2-18" value="&lt;font&gt;&lt;span style=&quot;font-size: 18px&quot;&gt;u&lt;/span&gt;&lt;sub&gt;&lt;font style=&quot;font-size: 13px&quot;&gt;N&lt;/font&gt;&lt;/sub&gt;&lt;/font&gt;" style="text;html=1;strokeColor=none;fillColor=none;align=center;verticalAlign=middle;whiteSpace=wrap;rounded=0;" vertex="1" parent="1">
          <mxGeometry x="46" y="710" width="40" height="20" as="geometry" />
        </mxCell>
        <mxCell id="Fft4RuXF4kXxr0UAbme2-20" value="" style="endArrow=none;html=1;" edge="1" parent="1">
          <mxGeometry width="50" height="50" relative="1" as="geometry">
            <mxPoint x="320" y="457" as="sourcePoint" />
            <mxPoint x="440" y="457" as="targetPoint" />
          </mxGeometry>
        </mxCell>
        <mxCell id="Fft4RuXF4kXxr0UAbme2-21" value="" style="endArrow=none;html=1;" edge="1" parent="1">
          <mxGeometry width="50" height="50" relative="1" as="geometry">
            <mxPoint x="320" y="510" as="sourcePoint" />
            <mxPoint x="440" y="510" as="targetPoint" />
          </mxGeometry>
        </mxCell>
        <mxCell id="Fft4RuXF4kXxr0UAbme2-22" value="" style="endArrow=none;html=1;" edge="1" parent="1">
          <mxGeometry width="50" height="50" relative="1" as="geometry">
            <mxPoint x="320" y="560" as="sourcePoint" />
            <mxPoint x="440" y="560" as="targetPoint" />
          </mxGeometry>
        </mxCell>
        <mxCell id="Fft4RuXF4kXxr0UAbme2-23" value="" style="endArrow=none;html=1;" edge="1" parent="1">
          <mxGeometry width="50" height="50" relative="1" as="geometry">
            <mxPoint x="320" y="641" as="sourcePoint" />
            <mxPoint x="440" y="641" as="targetPoint" />
          </mxGeometry>
        </mxCell>
        <mxCell id="Fft4RuXF4kXxr0UAbme2-24" value="" style="endArrow=none;html=1;" edge="1" parent="1">
          <mxGeometry width="50" height="50" relative="1" as="geometry">
            <mxPoint x="320" y="720" as="sourcePoint" />
            <mxPoint x="440" y="720" as="targetPoint" />
          </mxGeometry>
        </mxCell>
        <mxCell id="Fft4RuXF4kXxr0UAbme2-27" value="&lt;span style=&quot;font-size: 18px&quot;&gt;r&lt;/span&gt;&lt;sup&gt;&lt;font style=&quot;font-size: 12px&quot;&gt;(N)&lt;/font&gt;&lt;/sup&gt;" style="text;html=1;strokeColor=none;fillColor=none;align=center;verticalAlign=middle;whiteSpace=wrap;rounded=0;" vertex="1" parent="1">
          <mxGeometry x="435" y="446" width="40" height="20" as="geometry" />
        </mxCell>
        <mxCell id="Fft4RuXF4kXxr0UAbme2-28" value="&lt;span style=&quot;font-size: 18px&quot;&gt;r&lt;/span&gt;&lt;sup&gt;&lt;font style=&quot;font-size: 12px&quot;&gt;(N)&lt;/font&gt;&lt;/sup&gt;&lt;span style=&quot;font-size: 18px&quot;&gt;, u&lt;/span&gt;&lt;sub&gt;&lt;font style=&quot;font-size: 13px&quot;&gt;1&lt;/font&gt;&lt;/sub&gt;" style="text;html=1;strokeColor=none;fillColor=none;align=center;verticalAlign=middle;whiteSpace=wrap;rounded=0;" vertex="1" parent="1">
          <mxGeometry x="441" y="499" width="54" height="20" as="geometry" />
        </mxCell>
        <mxCell id="Fft4RuXF4kXxr0UAbme2-29" value="&lt;font&gt;&lt;span style=&quot;font-size: 18px&quot;&gt;r&lt;/span&gt;&lt;sup style=&quot;font-size: 18px&quot;&gt;&lt;font style=&quot;font-size: 12px&quot;&gt;(N)&lt;/font&gt;&lt;/sup&gt;&lt;span style=&quot;font-size: 18px&quot;&gt;, u&lt;/span&gt;&lt;sub&gt;&lt;font style=&quot;font-size: 13px&quot;&gt;1&lt;/font&gt;&lt;/sub&gt;&lt;span style=&quot;font-size: 18px&quot;&gt;, u&lt;/span&gt;&lt;sub&gt;&lt;font style=&quot;font-size: 13px&quot;&gt;2&lt;/font&gt;&lt;/sub&gt;&lt;/font&gt;" style="text;html=1;strokeColor=none;fillColor=none;align=center;verticalAlign=middle;whiteSpace=wrap;rounded=0;" vertex="1" parent="1">
          <mxGeometry x="435" y="548" width="97" height="20" as="geometry" />
        </mxCell>
        <mxCell id="Fft4RuXF4kXxr0UAbme2-30" value="&lt;font&gt;&lt;span style=&quot;font-size: 18px&quot;&gt;r&lt;/span&gt;&lt;sup style=&quot;font-size: 18px&quot;&gt;&lt;font style=&quot;font-size: 12px&quot;&gt;(N)&lt;/font&gt;&lt;/sup&gt;&lt;span style=&quot;font-size: 18px&quot;&gt;, u&lt;/span&gt;&lt;sub&gt;&lt;font style=&quot;font-size: 13px&quot;&gt;1&lt;/font&gt;&lt;/sub&gt;&lt;span style=&quot;font-size: 18px&quot;&gt;, u&lt;/span&gt;&lt;sub&gt;&lt;font style=&quot;font-size: 13px&quot;&gt;2&lt;/font&gt;&lt;/sub&gt;&lt;span style=&quot;font-size: 18px&quot;&gt;,..., u&lt;/span&gt;&lt;sub&gt;&lt;font style=&quot;font-size: 13px&quot;&gt;i&lt;/font&gt;&lt;/sub&gt;&lt;/font&gt;" style="text;html=1;strokeColor=none;fillColor=none;align=center;verticalAlign=middle;whiteSpace=wrap;rounded=0;" vertex="1" parent="1">
          <mxGeometry x="433" y="628" width="147" height="20" as="geometry" />
        </mxCell>
        <mxCell id="Fft4RuXF4kXxr0UAbme2-31" value="&lt;font&gt;&lt;span style=&quot;font-size: 18px&quot;&gt;r&lt;/span&gt;&lt;sup style=&quot;font-size: 18px&quot;&gt;&lt;font style=&quot;font-size: 12px&quot;&gt;(N)&lt;/font&gt;&lt;/sup&gt;&lt;span style=&quot;font-size: 18px&quot;&gt;, u&lt;/span&gt;&lt;sub&gt;&lt;font style=&quot;font-size: 13px&quot;&gt;1&lt;/font&gt;&lt;/sub&gt;&lt;span style=&quot;font-size: 18px&quot;&gt;, u&lt;/span&gt;&lt;sub&gt;&lt;font style=&quot;font-size: 13px&quot;&gt;2&lt;/font&gt;&lt;/sub&gt;&lt;span style=&quot;font-size: 18px&quot;&gt;,...,&amp;nbsp;u&lt;/span&gt;&lt;sub&gt;&lt;font style=&quot;font-size: 13px&quot;&gt;N&lt;/font&gt;&lt;/sub&gt;&lt;/font&gt;" style="text;html=1;strokeColor=none;fillColor=none;align=center;verticalAlign=middle;whiteSpace=wrap;rounded=0;" vertex="1" parent="1">
          <mxGeometry x="444" y="708" width="137" height="20" as="geometry" />
        </mxCell>
      </root>
    </mxGraphModel>
  </diagram>
</mxfile>
